<svg width="32" height="32" viewBox="0 0 32 32" fill="none" xmlns="http://www.w3.org/2000/svg">
<rect width="32" height="32" rx="16" fill="#E0E3E6"/>
<path d="M18.8125 11.5C18.8125 12.2459 18.5162 12.9613 17.9887 13.4887C17.4613 14.0162 16.7459 14.3125 16 14.3125C15.2541 14.3125 14.5387 14.0162 14.0112 13.4887C13.4838 12.9613 13.1875 12.2459 13.1875 11.5C13.1875 10.7541 13.4838 10.0387 14.0112 9.51126C14.5387 8.98382 15.2541 8.6875 16 8.6875C16.7459 8.6875 17.4613 8.98382 17.9887 9.51126C18.5162 10.0387 18.8125 10.7541 18.8125 11.5ZM11.8658 22.8582C10.3134 22.5296 9.2786 20.987 10.0122 19.5798C10.2816 19.0631 10.6321 18.5867 11.0551 18.1705C12.1072 17.1354 14.524 16.5554 16 16.5554C17.4759 16.5554 19.8927 17.1354 20.9448 18.1705C21.3676 18.5864 21.7179 19.0624 21.9872 19.5788C22.7214 20.9863 21.6866 22.5313 20.1336 22.8603C18.7131 23.1612 17.1769 23.3141 16 23.3125C14.7948 23.3125 13.2659 23.1546 11.8658 22.8582Z" fill="#7B8184"/>
</svg>
