<svg width="18" height="18" viewBox="0 0 18 18" fill="none" xmlns="http://www.w3.org/2000/svg">
<path d="M5.93999 4.74751C5.78004 4.59847 5.56849 4.51733 5.3499 4.52119C5.13131 4.52505 4.92275 4.6136 4.76817 4.76819C4.61358 4.92278 4.52502 5.13133 4.52117 5.34992C4.51731 5.56851 4.59845 5.78006 4.74749 5.94001L7.80749 9.00001L4.74749 12.06C4.66459 12.1373 4.5981 12.2304 4.55199 12.3339C4.50587 12.4374 4.48107 12.5491 4.47907 12.6624C4.47708 12.7757 4.49792 12.8882 4.54035 12.9933C4.58279 13.0984 4.64595 13.1938 4.72607 13.2739C4.80619 13.354 4.90163 13.4172 5.00669 13.4596C5.11175 13.5021 5.22429 13.5229 5.33758 13.5209C5.45087 13.5189 5.5626 13.4941 5.6661 13.448C5.76959 13.4019 5.86275 13.3354 5.93999 13.2525L8.99999 10.1925L12.06 13.2525C12.1372 13.3354 12.2304 13.4019 12.3339 13.448C12.4374 13.4941 12.5491 13.5189 12.6624 13.5209C12.7757 13.5229 12.8882 13.5021 12.9933 13.4596C13.0983 13.4172 13.1938 13.354 13.2739 13.2739C13.354 13.1938 13.4172 13.0984 13.4596 12.9933C13.5021 12.8882 13.5229 12.7757 13.5209 12.6624C13.5189 12.5491 13.4941 12.4374 13.448 12.3339C13.4019 12.2304 13.3354 12.1373 13.2525 12.06L10.1925 9.00001L13.2525 5.94001C13.4015 5.78006 13.4827 5.56851 13.4788 5.34992C13.475 5.13133 13.3864 4.92278 13.2318 4.76819C13.0772 4.6136 12.8687 4.52505 12.6501 4.52119C12.4315 4.51733 12.2199 4.59847 12.06 4.74751L8.99999 7.80751L5.93999 4.74751Z" fill="#4E5154"/>
</svg>
