<svg width="18" height="18" viewBox="0 0 18 18" fill="none" xmlns="http://www.w3.org/2000/svg">
<path d="M4.58702 15.5746C3.83716 15.3153 3.35257 14.5661 3.54771 13.7971C3.79864 12.8081 4.31613 11.8976 5.05512 11.1705C6.10724 10.1355 7.52405 9.55536 8.99998 9.55536C10.4759 9.55536 11.8927 10.1355 12.9448 11.1705C13.6837 11.8974 14.2011 12.8078 14.4521 13.7965C14.6474 14.5658 14.1624 15.3152 13.4122 15.5745C11.9959 16.0641 10.5047 16.3146 8.99998 16.3125C7.45472 16.3125 5.96993 16.0529 4.58702 15.5746Z" fill="#7B8184"/>
<path d="M11.1213 7.12132C11.6839 6.55871 12 5.79565 12 5C12 4.20435 11.6839 3.44129 11.1213 2.87868C10.5587 2.31607 9.79565 2 9 2C8.20435 2 7.44129 2.31607 6.87868 2.87868C6.31607 3.44129 6 4.20435 6 5C6 5.79565 6.31607 6.55871 6.87868 7.12132C7.44129 7.68393 8.20435 8 9 8C9.79565 8 10.5587 7.68393 11.1213 7.12132Z" fill="#7B8184"/>
</svg>
