<svg width="18" height="18" viewBox="0 0 18 18" fill="none" xmlns="http://www.w3.org/2000/svg">
<path d="M11.1427 11.8115C12.5401 11.646 13.9131 11.3163 15.2332 10.829C14.1153 9.59061 13.4975 7.98087 13.5 6.3125V5.75C13.5 4.55653 13.0259 3.41193 12.182 2.56802C11.3381 1.72411 10.1935 1.25 8.99999 1.25C7.80652 1.25 6.66192 1.72411 5.81801 2.56802C4.9741 3.41193 4.49999 4.55653 4.49999 5.75V6.3125C4.50225 7.98097 3.88423 9.59072 2.76599 10.829C4.06574 11.309 5.43599 11.6428 6.85724 11.8115M11.1427 11.8115C9.71923 11.9804 8.28075 11.9804 6.85724 11.8115ZM11.1427 11.8115C11.2508 12.1489 11.2777 12.507 11.2212 12.8568C11.1647 13.2065 11.0264 13.538 10.8175 13.8242C10.6087 14.1104 10.3352 14.3432 10.0194 14.5037C9.70355 14.6642 9.35427 14.7479 8.99999 14.7479C8.64571 14.7479 8.29643 14.6642 7.9806 14.5037C7.66476 14.3432 7.39129 14.1104 7.18246 13.8242C6.97362 13.538 6.83531 13.2065 6.7788 12.8568C6.72229 12.507 6.74916 12.1489 6.85724 11.8115" fill="#FF7308"/>
</svg>
