<svg width="18" height="18" viewBox="0 0 18 18" fill="none" xmlns="http://www.w3.org/2000/svg">
<path fill-rule="evenodd" clip-rule="evenodd" d="M7.26189 1.63125C7.27583 1.4926 7.34073 1.36405 7.44403 1.27052C7.54733 1.177 7.68167 1.12514 7.82102 1.125H10.179C10.3184 1.12514 10.4527 1.177 10.556 1.27052C10.6593 1.36405 10.7242 1.4926 10.7381 1.63125L10.9474 3.7215C11.5474 3.94332 12.1052 4.26596 12.5966 4.6755L14.5125 3.81038C14.6397 3.75292 14.7838 3.74482 14.9166 3.78765C15.0495 3.83048 15.1617 3.92118 15.2314 4.04212L16.4093 6.08288C16.4792 6.20353 16.5017 6.34584 16.4726 6.4822C16.4435 6.61857 16.3648 6.73926 16.2518 6.82088L14.5451 8.04712C14.653 8.6778 14.653 9.3222 14.5451 9.95288L16.2506 11.1791C16.3639 11.2606 16.4428 11.3812 16.4721 11.5176C16.5014 11.6539 16.479 11.7963 16.4093 11.9171L15.2314 13.9579C15.1617 14.0788 15.0495 14.1695 14.9166 14.2124C14.7838 14.2552 14.6397 14.2471 14.5125 14.1896L12.5966 13.3256C12.1095 13.7306 11.5526 14.0558 10.9474 14.2785L10.7381 16.3688C10.7242 16.5074 10.6593 16.6359 10.556 16.7295C10.4527 16.823 10.3184 16.8749 10.179 16.875H7.82102C7.68167 16.8749 7.54733 16.823 7.44403 16.7295C7.34073 16.6359 7.27583 16.5074 7.26189 16.3688L7.05264 14.2785C6.45258 14.0567 5.89481 13.7341 5.40339 13.3245L3.48752 14.1896C3.3603 14.2471 3.21626 14.2552 3.0834 14.2124C2.95054 14.1695 2.83835 14.0788 2.76864 13.9579L1.59077 11.9171C1.52088 11.7965 1.4983 11.6542 1.5274 11.5178C1.55651 11.3814 1.63522 11.2607 1.74827 11.1791L3.45489 9.95288C3.34722 9.32219 3.34722 8.67781 3.45489 8.04712L1.74939 6.82088C1.63616 6.73943 1.55722 6.61881 1.52791 6.48243C1.49859 6.34606 1.521 6.20366 1.59077 6.08288L2.76752 4.04212C2.83723 3.92118 2.94941 3.83048 3.08227 3.78765C3.21513 3.74482 3.35917 3.75292 3.48639 3.81038L5.40227 4.6755C5.88939 4.2705 6.44627 3.94425 7.05152 3.7215L7.26189 1.63125ZM7.06277 10.1441L7.03802 10.1025C6.7401 9.58543 6.65978 8.97118 6.81475 8.3949C6.96971 7.81861 7.34726 7.32748 7.86433 7.02956C8.3814 6.73164 8.99565 6.65133 9.57193 6.80629C10.1482 6.96126 10.6393 7.3388 10.9373 7.85587L10.962 7.8975C11.2599 8.41457 11.3403 9.02882 11.1853 9.6051C11.0303 10.1814 10.6528 10.6725 10.1357 10.9704C9.61863 11.2684 9.00439 11.3487 8.4281 11.1937C7.85181 11.0387 7.36069 10.6612 7.06277 10.1441Z" fill="#7B8184"/>
</svg>
