<svg width="190" height="34" viewBox="0 0 190 34" fill="none" xmlns="http://www.w3.org/2000/svg">
<path d="M5.26372 7.37608C0.991487 10.1503 2.23524 14.9357 3.39115 16.9817C4.25117 12.0714 9.99138 9.8266 12.754 9.318L12.0258 8.31236C13.7735 7.97946 16.1755 8.6129 17.158 8.97123C15.69 10.0347 12.8095 12.0852 13.0314 11.7801C13.2533 11.4749 13.1239 10.5433 13.0314 10.1156C11.4131 10.6473 7.8645 12.4736 6.61611 15.5252C5.36773 18.5768 6.51208 20.8655 7.2403 21.6284L9.8411 16.1841H13.0314L7.41369 28.6679H10.6387L17.6435 13.2712H20.8338L13.933 28.6679H17.158L25.8273 9.318H29.0176C27.4086 8.26381 24.2784 7.74597 22.9144 7.61882C18.2677 5.19141 10.604 3.90835 5.26372 7.37608Z" fill="#E60000"/>
<path d="M20.4176 28.5981L28.2893 11.2595C30.0232 13.028 33.4562 17.2586 31.7571 21.4892C30.3977 24.8737 26.4514 26.1822 24.6482 26.4134L23.6773 28.5981H20.4176Z" fill="#940015"/>
<path d="M52.1826 17.1826L55.8958 16.7673L59.0716 22.8502C59.1856 23.0457 59.2997 23.1922 59.4137 23.29C59.5439 23.3877 59.6905 23.4528 59.8534 23.4854C60.0325 23.518 60.228 23.5342 60.4397 23.5342H60.6595V25H55.847L52.1826 17.1826ZM50.0817 23.29C50.0817 23.3388 50.1224 23.3795 50.2038 23.4121C50.3015 23.4284 50.4237 23.4528 50.5703 23.4854C50.7168 23.5017 50.8797 23.518 51.0588 23.5342C51.238 23.5342 51.4171 23.5342 51.5963 23.5342H51.865V25H44.2919V23.5342H44.5362C45.0248 23.5342 45.4238 23.4772 45.7333 23.3632C46.0427 23.2492 46.1974 23.0131 46.1974 22.6548V10.0004C46.1974 9.64213 46.0427 9.40598 45.7333 9.29197C45.4238 9.17797 45.0248 9.12097 44.5362 9.12097H44.2919V7.65521H52.5246C53.9252 7.65521 55.1141 7.86693 56.0913 8.29037C57.0684 8.69753 57.8176 9.27569 58.3388 10.0249C58.8599 10.7577 59.1205 11.629 59.1205 12.6388C59.1205 13.5671 58.9088 14.3895 58.4853 15.1061C58.0619 15.8064 57.443 16.3765 56.6287 16.8162C55.8307 17.2559 54.8454 17.5409 53.6728 17.6712C53.5262 17.7038 53.3715 17.7282 53.2086 17.7445C53.0458 17.7608 52.8748 17.7771 52.6956 17.7934C52.5165 17.8096 52.3373 17.8178 52.1582 17.8178H49.5931V16.1322H51.865C52.6142 16.1322 53.2168 15.9937 53.6728 15.7169C54.1451 15.44 54.4952 15.041 54.7232 14.5198C54.9512 13.9824 55.0652 13.3554 55.0652 12.6388C55.0652 11.9548 54.9431 11.3685 54.6988 10.8799C54.4708 10.3913 54.1288 10.0167 53.6728 9.75613C53.233 9.49555 52.6712 9.36526 51.9872 9.36526H50.0817V23.29ZM69.5981 17.4758V18.8683C68.9466 18.9497 68.3684 19.0555 67.8636 19.1858C67.375 19.2998 66.9434 19.4383 66.5688 19.6011C66.1942 19.764 65.8848 19.9594 65.6405 20.1874C65.4125 20.3992 65.2415 20.6434 65.1275 20.9203C65.0135 21.1972 64.9565 21.4985 64.9565 21.8242C64.9565 22.1825 65.0216 22.4919 65.1519 22.7525C65.2985 23.0131 65.5021 23.2167 65.7627 23.3632C66.0232 23.4935 66.3245 23.5587 66.6665 23.5587C67.1226 23.5587 67.5216 23.4447 67.8636 23.2167C68.2219 22.9887 68.5395 22.6629 68.8163 22.2395C69.0932 21.8161 69.3375 21.3193 69.5492 20.7493L69.5736 22.5082C69.3293 23.0782 69.0118 23.5668 68.6209 23.974C68.23 24.3811 67.7659 24.6987 67.2284 24.9267C66.7073 25.1384 66.1047 25.2443 65.4206 25.2443C64.6389 25.2443 63.9467 25.1221 63.3442 24.8779C62.7416 24.6173 62.2693 24.2427 61.9273 23.7541C61.5853 23.2492 61.4142 22.6466 61.4142 21.9463C61.4142 21.2623 61.5853 20.676 61.9273 20.1874C62.2856 19.6988 62.8067 19.2835 63.4907 18.9415C64.1748 18.5832 65.0216 18.2901 66.0314 18.0621C67.0574 17.8178 68.2463 17.6224 69.5981 17.4758ZM69.2805 25V22.5082H69.0118V16.1566C69.0118 15.6192 68.9303 15.1957 68.7675 14.8863C68.6209 14.5606 68.401 14.3325 68.1079 14.2023C67.8147 14.0557 67.4483 13.9824 67.0086 13.9824C66.3571 13.9824 65.8115 14.1208 65.3718 14.3977C64.9483 14.6746 64.6226 15.0166 64.3946 15.4237C64.2806 15.2446 64.2236 15.0817 64.2236 14.9351C64.2399 14.7723 64.2888 14.6257 64.3702 14.4954C64.4516 14.3488 64.5656 14.2267 64.7122 14.129C64.8751 14.0313 65.0624 13.958 65.2741 13.9091V16.4498H62.2448V13.8602C62.4891 13.6648 62.8393 13.445 63.2953 13.2007C63.7513 12.9564 64.3213 12.7446 65.0054 12.5655C65.6894 12.3701 66.4793 12.2723 67.375 12.2723C68.1242 12.2723 68.8082 12.3538 69.4271 12.5166C70.0622 12.6632 70.6159 12.9075 71.0882 13.2495C71.5768 13.5752 71.9514 14.0068 72.212 14.5443C72.4889 15.0654 72.6273 15.7006 72.6273 16.4498V22.7769C72.6273 22.9724 72.6843 23.1271 72.7983 23.2411C72.9286 23.3388 73.0996 23.4121 73.3113 23.461C73.5393 23.5098 73.7999 23.5424 74.093 23.5587L74.1663 23.5831V25H69.2805ZM81.8965 30.4477H74.5922V29.0553H74.641C74.9342 29.0553 75.1948 29.0308 75.4228 28.982C75.6508 28.9494 75.8299 28.8761 75.9602 28.7621C76.0905 28.6481 76.1557 28.4852 76.1557 28.2735V14.9107C76.1557 14.7153 76.1068 14.5687 76.0091 14.471C75.9277 14.357 75.7811 14.2674 75.5694 14.2023C75.3739 14.1371 75.1215 14.072 74.8121 14.0068L74.5922 13.958V12.5166H79.6002V15.7413L79.8445 15.8634V28.8354C79.8445 28.8843 79.9341 28.925 80.1132 28.9575C80.3086 28.9901 80.5285 29.0145 80.7728 29.0308C81.0334 29.0471 81.2614 29.0553 81.4568 29.0553H81.8965V30.4477ZM83.5822 25.2443C82.947 25.2443 82.377 25.1629 81.8721 25C81.3835 24.8534 80.9275 24.6173 80.5041 24.2916C80.0969 23.9495 79.7061 23.5261 79.3315 23.0212L79.3803 20.3096C79.6572 20.9285 79.9585 21.4659 80.2842 21.9219C80.6099 22.3779 80.9764 22.7281 81.3835 22.9724C81.7907 23.2004 82.2467 23.3144 82.7516 23.3144C83.2239 23.3144 83.631 23.2085 83.973 22.9968C84.3313 22.7688 84.6245 22.4512 84.8525 22.0441C85.0805 21.6206 85.2515 21.1239 85.3655 20.5539C85.4795 19.9839 85.5365 19.3487 85.5365 18.6484C85.5365 17.9481 85.4795 17.3292 85.3655 16.7918C85.2678 16.238 85.1049 15.7739 84.8769 15.3993C84.6489 15.0084 84.372 14.7153 84.0463 14.5198C83.7206 14.3244 83.3297 14.2267 82.8737 14.2267C82.3688 14.2267 81.9047 14.357 81.4812 14.6176C81.0741 14.8618 80.6995 15.2283 80.3575 15.7169C80.0155 16.2055 79.6816 16.7918 79.3559 17.4758L79.3315 15.1061C79.7549 14.471 80.1702 13.9498 80.5774 13.5427C81.0008 13.1192 81.465 12.8016 81.9698 12.5899C82.491 12.3782 83.0854 12.2723 83.7532 12.2723C84.8932 12.2723 85.8785 12.5411 86.7091 13.0785C87.556 13.5997 88.2074 14.3407 88.6635 15.3016C89.1358 16.2462 89.3719 17.3618 89.3719 18.6484C89.3719 19.935 89.1276 21.075 88.639 22.0685C88.1504 23.0619 87.4664 23.8437 86.587 24.4137C85.7238 24.9674 84.7222 25.2443 83.5822 25.2443ZM93.7975 10.489C93.1623 10.489 92.6493 10.3261 92.2584 10.0004C91.8839 9.65841 91.6966 9.2024 91.6966 8.63238C91.6966 8.06237 91.8839 7.6145 92.2584 7.28877C92.6493 6.96305 93.1623 6.80019 93.7975 6.80019C94.4326 6.80019 94.9375 6.96305 95.3121 7.28877C95.703 7.6145 95.8984 8.06237 95.8984 8.63238C95.8984 9.2024 95.703 9.65841 95.3121 10.0004C94.9375 10.3261 94.4326 10.489 93.7975 10.489ZM95.7274 12.5166V22.8258C95.7274 23.1515 95.874 23.3632 96.1671 23.461C96.4603 23.5587 96.8267 23.6075 97.2664 23.6075H97.2909V25H90.4751V23.6075H90.4995C90.9393 23.6075 91.3057 23.5587 91.5988 23.461C91.892 23.3632 92.0386 23.1515 92.0386 22.8258V14.9107C92.0386 14.6176 91.9246 14.4221 91.6966 14.3244C91.4848 14.2104 91.151 14.1045 90.695 14.0068L90.4507 13.958V12.5166H95.7274ZM111.321 22.7769C111.321 23.0701 111.451 23.2655 111.712 23.3632C111.989 23.461 112.355 23.5261 112.811 23.5587L112.884 23.5831V25H107.876V22.1662L107.632 22.2639V9.43855C107.632 9.22683 107.583 9.07211 107.486 8.97439C107.388 8.86039 107.233 8.77081 107.021 8.70567C106.81 8.64053 106.541 8.57538 106.215 8.51024L105.995 8.46138V7.02005H111.321V22.7769ZM103.919 12.2723C104.635 12.2723 105.263 12.3782 105.8 12.5899C106.337 12.8016 106.818 13.1274 107.241 13.5671C107.665 13.9905 108.047 14.5361 108.389 15.2039L108.365 17.5735C108.023 16.808 107.665 16.181 107.29 15.6924C106.932 15.1876 106.549 14.8211 106.142 14.5931C105.735 14.3488 105.271 14.2267 104.749 14.2267C104.277 14.2267 103.862 14.3325 103.504 14.5443C103.162 14.756 102.868 15.0654 102.624 15.4726C102.396 15.8797 102.225 16.3765 102.111 16.9628C101.997 17.5328 101.94 18.1761 101.94 18.8927C101.94 19.5767 101.997 20.1956 102.111 20.7493C102.225 21.2867 102.396 21.7509 102.624 22.1418C102.852 22.5326 103.129 22.8258 103.455 23.0212C103.797 23.2167 104.188 23.3144 104.627 23.3144C105.149 23.3144 105.613 23.1841 106.02 22.9235C106.443 22.6466 106.842 22.2395 107.217 21.702C107.591 21.1646 107.974 20.4806 108.365 19.65L108.389 21.9708C107.982 22.6874 107.559 23.29 107.119 23.7785C106.696 24.2671 106.207 24.6336 105.653 24.8779C105.116 25.1221 104.481 25.2443 103.748 25.2443C102.624 25.2443 101.639 24.9837 100.792 24.4626C99.9451 23.9251 99.2855 23.1841 98.8132 22.2395C98.3572 21.2786 98.1292 20.163 98.1292 18.8927C98.1292 17.5898 98.3735 16.4416 98.862 15.4482C99.3506 14.4547 100.035 13.6811 100.914 13.1274C101.794 12.5574 102.795 12.2723 103.919 12.2723ZM126.528 23.4365C127.163 23.4365 127.701 23.347 128.14 23.1678C128.58 22.9887 128.922 22.7199 129.166 22.3616C129.411 21.9871 129.533 21.5229 129.533 20.9692C129.533 20.4643 129.411 20.0409 129.166 19.6988C128.938 19.3568 128.621 19.0718 128.214 18.8438C127.806 18.6158 127.326 18.4122 126.772 18.2331C126.219 18.0539 125.624 17.8667 124.989 17.6712C124.354 17.4921 123.727 17.2803 123.108 17.0361C122.489 16.7755 121.927 16.4416 121.422 16.0345C120.934 15.6273 120.543 15.1224 120.25 14.5198C119.956 13.9172 119.81 13.1762 119.81 12.2968C119.81 11.2707 120.062 10.3994 120.567 9.68284C121.088 8.94996 121.772 8.38809 122.619 7.99722C123.466 7.60635 124.394 7.41092 125.404 7.41092C126.251 7.41092 127.008 7.52492 127.676 7.75293C128.344 7.98093 128.938 8.3718 129.459 8.92553C129.997 9.47926 130.445 10.2447 130.803 11.2219L129.655 11.1486L130.119 7.65521H131.78V12.2235H129.85C129.639 11.5883 129.329 11.0427 128.922 10.5867C128.531 10.1307 128.075 9.7887 127.554 9.56069C127.033 9.3164 126.463 9.19426 125.844 9.19426C125.258 9.19426 124.761 9.29197 124.354 9.48741C123.947 9.66656 123.629 9.91899 123.401 10.2447C123.189 10.5704 123.083 10.9694 123.083 11.4417C123.083 11.8978 123.197 12.2805 123.425 12.5899C123.67 12.8994 123.987 13.1599 124.378 13.3717C124.785 13.5671 125.249 13.7462 125.771 13.9091C126.308 14.0557 126.87 14.2104 127.456 14.3733C128.157 14.5524 128.832 14.7723 129.484 15.0329C130.135 15.2934 130.713 15.6192 131.218 16.01C131.74 16.4009 132.147 16.9058 132.44 17.5246C132.749 18.1272 132.904 18.8764 132.904 19.7721C132.904 20.8959 132.643 21.8731 132.122 22.7036C131.617 23.518 130.909 24.145 129.997 24.5847C129.085 25.0244 128.018 25.2443 126.797 25.2443C125.852 25.2443 124.948 25.0977 124.085 24.8046C123.238 24.5114 122.481 24.0391 121.813 23.3877C121.145 22.7199 120.624 21.8242 120.25 20.7004L121.52 20.8959L121.08 25H119.297V19.5767H121.325C121.601 20.3584 122 21.0425 122.522 21.6288C123.043 22.2151 123.645 22.6629 124.329 22.9724C125.03 23.2818 125.762 23.4365 126.528 23.4365ZM133.371 14.1534V12.6388H133.469C133.86 12.6388 134.202 12.6144 134.495 12.5655C134.788 12.5004 135.008 12.3863 135.154 12.2235C135.317 12.0606 135.399 11.8326 135.399 11.5395L137.646 12.5166H142.263V14.1534H133.371ZM138.941 20.7004C138.941 21.3682 139.014 21.8975 139.161 22.2883C139.324 22.6792 139.544 22.9642 139.82 23.1434C140.114 23.3062 140.464 23.3877 140.871 23.3877C141.197 23.3877 141.498 23.3551 141.775 23.29C142.052 23.2085 142.28 23.1515 142.459 23.1189V24.829C142.312 24.8941 142.117 24.9593 141.872 25.0244C141.644 25.0896 141.376 25.1384 141.066 25.171C140.757 25.2199 140.415 25.2443 140.04 25.2443C139.161 25.2443 138.355 25.114 137.622 24.8534C136.889 24.5766 136.303 24.1124 135.863 23.461C135.439 22.7932 135.228 21.8975 135.228 20.7737V12.9564L135.399 12.7854L135.423 9.12097H138.941V20.7004ZM156.725 18.7705C156.725 20.0409 156.44 21.1646 155.87 22.1418C155.3 23.1189 154.494 23.8844 153.451 24.4381C152.425 24.9756 151.228 25.2443 149.86 25.2443C148.476 25.2443 147.263 24.9756 146.22 24.4381C145.194 23.8844 144.396 23.1189 143.826 22.1418C143.273 21.1646 142.996 20.0409 142.996 18.7705C142.996 17.8096 143.15 16.9302 143.46 16.1322C143.786 15.3341 144.25 14.6501 144.852 14.0801C145.471 13.5101 146.196 13.0704 147.027 12.7609C147.873 12.4352 148.818 12.2723 149.86 12.2723C150.886 12.2723 151.815 12.4352 152.645 12.7609C153.492 13.0704 154.217 13.5101 154.819 14.0801C155.438 14.6501 155.911 15.3341 156.236 16.1322C156.562 16.9302 156.725 17.8096 156.725 18.7705ZM146.807 18.7705C146.807 19.764 146.929 20.6272 147.173 21.36C147.417 22.0766 147.768 22.6222 148.224 22.9968C148.68 23.3714 149.225 23.5587 149.86 23.5587C150.495 23.5587 151.041 23.3714 151.497 22.9968C151.953 22.6222 152.295 22.0766 152.523 21.36C152.767 20.6272 152.89 19.764 152.89 18.7705C152.89 17.7445 152.767 16.8813 152.523 16.181C152.295 15.4644 151.953 14.927 151.497 14.5687C151.041 14.1941 150.495 14.0068 149.86 14.0068C149.225 14.0068 148.68 14.1941 148.224 14.5687C147.768 14.927 147.417 15.4644 147.173 16.181C146.929 16.8813 146.807 17.7445 146.807 18.7705ZM165.322 23.4854C165.958 23.4854 166.503 23.3551 166.959 23.0945C167.415 22.8177 167.806 22.4756 168.132 22.0685C168.474 21.6613 168.759 21.2786 168.987 20.9203L170.33 21.9708C169.972 22.5896 169.549 23.1515 169.06 23.6564C168.571 24.145 167.977 24.5358 167.277 24.829C166.593 25.1059 165.77 25.2443 164.809 25.2443C163.474 25.2443 162.293 24.9756 161.267 24.4381C160.241 23.9007 159.435 23.1515 158.849 22.1906C158.279 21.2135 157.994 20.0734 157.994 18.7705C157.994 17.4351 158.287 16.2869 158.873 15.326C159.459 14.3651 160.282 13.616 161.34 13.0785C162.399 12.5411 163.637 12.2723 165.054 12.2723C165.949 12.2723 166.731 12.3619 167.399 12.5411C168.083 12.7202 168.645 12.9319 169.085 13.1762C169.541 13.4042 169.866 13.6078 170.062 13.787V16.9872H167.081V13.9824C167.293 14.015 167.464 14.0801 167.594 14.1778C167.725 14.2593 167.822 14.3733 167.887 14.5198C167.969 14.6501 168.001 14.7967 167.985 14.9596C167.985 15.1061 167.944 15.2527 167.863 15.3993C167.635 14.9921 167.285 14.6583 166.813 14.3977C166.34 14.1371 165.803 14.0068 165.2 14.0068C164.467 14.0068 163.849 14.2023 163.344 14.5931C162.839 14.984 162.456 15.5377 162.195 16.2543C161.935 16.9709 161.805 17.8096 161.805 18.7705C161.805 19.4871 161.878 20.1386 162.024 20.7249C162.187 21.2949 162.415 21.7916 162.708 22.2151C163.018 22.6222 163.392 22.9398 163.832 23.1678C164.272 23.3795 164.769 23.4854 165.322 23.4854ZM186.441 25H179.259V23.6075H179.332C179.495 23.6075 179.682 23.6075 179.894 23.6075C180.106 23.5912 180.285 23.5668 180.431 23.5342C180.578 23.4854 180.651 23.4365 180.651 23.3877L177.06 18.6484V18.2575L181.36 14.3488C181.36 14.2185 181.254 14.129 181.042 14.0801C180.83 14.015 180.578 13.9743 180.285 13.958C180.008 13.9254 179.756 13.9091 179.528 13.9091H179.381V12.5166H185.586V13.9091H185.537C185.211 13.9091 184.894 13.9498 184.584 14.0313C184.291 14.1127 184.006 14.2348 183.729 14.3977C183.469 14.5606 183.216 14.756 182.972 14.984L179.186 18.4285L179.821 16.7918L184.389 22.7525C184.568 22.9805 184.764 23.1597 184.975 23.29C185.187 23.404 185.415 23.4854 185.659 23.5342C185.904 23.5831 186.148 23.6075 186.392 23.6075H186.441V25ZM176.498 7.02005V23.3877C176.498 23.4365 176.572 23.4854 176.718 23.5342C176.865 23.5668 177.044 23.5912 177.256 23.6075C177.467 23.6075 177.655 23.6075 177.817 23.6075H177.891V25H171.246V23.6075H171.27C171.564 23.6075 171.824 23.5912 172.052 23.5587C172.28 23.5098 172.459 23.4284 172.59 23.3144C172.736 23.2004 172.809 23.0375 172.809 22.8258V9.43855C172.809 9.22683 172.761 9.07211 172.663 8.97439C172.565 8.86039 172.419 8.77081 172.223 8.70567C172.028 8.64053 171.775 8.57538 171.466 8.51024L171.222 8.46138V7.02005H176.498Z" fill="#252525"/>
</svg>
